FILE "Sotsugyou R - Graduation Real (1998)(NEC Avenue)(JP)[FXNAV602].img" BINARY
  TRACK 01 AUDIO
    INDEX 01 00:00:00
  TRACK 02 MODE1/2352
    PREGAP 00:03:00
    INDEX 01 00:55:45
  TRACK 03 MODE1/2352
    INDEX 01 01:05:65
